<?xml version="1.0" encoding="UTF-8" standalone="no"?>
<!-- Created with Inkscape (http://www.inkscape.org/) -->

<svg
   width="236mm"
   height="270mm"
   viewBox="0 0 236 270"
   version="1.1"
   id="svg1"
   inkscape:version="1.4.3 (0d15f75, 2025-12-25)"
   sodipodi:docname="N.I.C - DMD.svg"
   inkscape:export-filename="INC-DMD.png"
   inkscape:export-xdpi="96"
   inkscape:export-ydpi="96"
   xml:space="preserve"
   xmlns:inkscape="http://www.inkscape.org/namespaces/inkscape"
   xmlns:sodipodi="http://sodipodi.sourceforge.net/DTD/sodipodi-0.dtd"
   xmlns:xlink="http://www.w3.org/1999/xlink"
   xmlns="http://www.w3.org/2000/svg"
   xmlns:svg="http://www.w3.org/2000/svg"
   xmlns:bx="https://boxy-svg.com"><sodipodi:namedview
     id="namedview1"
     pagecolor="#ffffff"
     bordercolor="#000000"
     borderopacity="0.25"
     inkscape:showpageshadow="2"
     inkscape:pageopacity="0.0"
     inkscape:pagecheckerboard="0"
     inkscape:deskcolor="#d1d1d1"
     inkscape:document-units="mm"
     showguides="true"
     showgrid="true"
     inkscape:zoom="0.7239206"
     inkscape:cx="430.29581"
     inkscape:cy="451.01631"
     inkscape:window-width="1920"
     inkscape:window-height="1057"
     inkscape:window-x="-8"
     inkscape:window-y="-8"
     inkscape:window-maximized="1"
     inkscape:current-layer="svg1"
     inkscape:export-bgcolor="#ffffffff"
     inkscape:lockguides="false"><inkscape:grid
       id="grid1928"
       units="mm"
       originx="0"
       originy="0"
       spacingx="0.99999998"
       spacingy="1"
       empcolor="#0099e5"
       empopacity="0.30196078"
       color="#0099e5"
       opacity="0.14902"
       empspacing="5"
       enabled="true"
       visible="true" /></sodipodi:namedview><defs
     id="defs1"><linearGradient
       id="swatch11"
       inkscape:swatch="solid"><stop
         style="stop-color:#000000;stop-opacity:1;"
         offset="0"
         id="stop11" /></linearGradient><linearGradient
       id="swatch2152"
       inkscape:swatch="solid"><stop
         style="stop-color:#cd0000;stop-opacity:1;"
         offset="0"
         id="stop2152" /></linearGradient><linearGradient
       id="swatch2150"
       inkscape:swatch="solid"><stop
         style="stop-color:#ff0808;stop-opacity:1;"
         offset="0"
         id="stop2150" /></linearGradient><linearGradient
       id="swatch3"
       inkscape:swatch="solid"><stop
         style="stop-color:#000000;stop-opacity:1;"
         offset="0"
         id="stop3" /></linearGradient><linearGradient
       id="swatch2"
       inkscape:swatch="solid"><stop
         style="stop-color:#626262;stop-opacity:1;"
         offset="0"
         id="stop2" /></linearGradient><linearGradient
       id="swatch1"
       inkscape:swatch="solid"><stop
         style="stop-color:#999999;stop-opacity:1;"
         offset="0"
         id="stop1" /></linearGradient><clipPath
       clipPathUnits="userSpaceOnUse"
       id="clipPath2047"><path
         id="path2048"
         style="fill:#ff0000;fill-opacity:1;fill-rule:nonzero;stroke:none;stroke-width:0.123774"
         d="M 14.03969,-3.4014176 V 62.749702 h 69.5554 V -3.4014176 Z m 34.751176,0.029705 h 2.54e-4 2.54e-4 v 2.415e-4 c 0.05272,0.6280659 0.06252,1.2534538 0.04338,1.8834509 -0.06627,1.89462341 -0.344587,3.7742983 -0.64327,5.6461095 -0.379337,2.0593782 -0.599798,4.1387551 -0.80043,6.2192317 -0.137467,1.406186 -0.244368,2.815147 -0.330435,4.224975 -0.03138,0.540548 -0.06018,1.081294 -0.07635,1.62247 -0.02677,0.318303 0.04124,0.628239 0.113781,0.936421 6.34e-4,0.003 0.0016,0.006 0.0022,0.009 -6.34e-4,-0.003 -0.0019,-0.0058 -0.0025,-0.0087 -0.07256,-0.308222 -0.140797,-0.618315 -0.11403,-0.936657 0.01615,-0.541181 0.04498,-1.082153 0.07635,-1.622706 0.08607,-1.409833 0.192964,-2.818547 0.330434,-4.224739 0.200632,-2.0804865 0.421089,-4.1598489 0.80043,-6.2192319 0.298679,-1.8717918 0.576995,-3.75174348 0.64327,-5.6463452 0.01914,-0.6299926 0.0093,-1.2551539 -0.04338,-1.8832153 z M 73.710307,12.218096 h 2.54e-4 2.54e-4 v 2.41e-4 2.41e-4 h -2.54e-4 c -0.11195,0.09525 -0.224655,0.189921 -0.348283,0.271591 -0.440804,0.332473 -0.858701,0.692091 -1.306865,1.016106 -0.66035,0.50078 -1.32333,0.998359 -1.978643,1.505063 -0.729416,0.581075 -1.423714,1.200223 -2.153403,1.780899 -0.802329,0.639267 -1.603711,1.280179 -2.441944,1.877084 -1.247504,0.878219 -2.541964,1.69583 -3.822187,2.529893 -1.937818,1.257377 -3.880052,2.51932 -5.698449,3.930752 -0.261337,0.215691 -0.533674,0.42002 -0.784071,0.647149 -0.157951,0.143277 -0.294753,0.306079 -0.438761,0.462081 -0.505181,0.547245 -0.951733,1.136916 -1.390652,1.73304 -0.200996,0.265537 -0.402038,0.531749 -0.607079,0.795203 0.03661,0.09938 0.07324,0.19869 0.110063,0.297995 0.236287,0.150396 0.473767,0.29917 0.711439,0.447229 0.953337,0.597401 1.935243,1.151495 2.902768,1.72738 1.397316,0.878748 2.829137,1.702296 4.283258,2.49288 1.246745,0.672535 2.50695,1.322472 3.755505,1.991898 0.28304,0.158324 0.57137,0.30768 0.860171,0.456187 h 2.54e-4 v 2.42e-4 2.41e-4 h -2.54e-4 -2.54e-4 C 65.074372,36.032983 64.786052,35.883629 64.503003,35.725304 63.254449,35.055878 61.99425,34.405942 60.7475,33.733407 c -1.454129,-0.79059 -2.885938,-1.614133 -4.283258,-2.49288 -0.967538,-0.57589 -1.949428,-1.129973 -2.90277,-1.72738 -0.237503,-0.147954 -0.474842,-0.296485 -0.710943,-0.446758 0.295035,0.795707 0.597244,1.589037 0.909997,2.37901 0.595702,1.476835 1.20572,2.948523 1.860897,4.402498 0.09854,0.221332 0.201571,0.440866 0.306637,0.659408 0.254085,-0.448239 0.492103,-0.904914 0.70896,-1.372333 0.319183,-0.660127 0.662584,-1.325882 0.823484,-2.040464 h 2.54e-4 v -2.42e-4 h 2.53e-4 v 2.42e-4 h 2.54e-4 v 2.41e-4 c -0.160903,0.714621 -0.504529,1.380306 -0.823732,2.040463 -0.21692,0.467558 -0.455047,0.924217 -0.709208,1.37257 0.189001,0.393108 0.384836,0.783326 0.574356,1.176184 v 2.42e-4 h -2.53e-4 v 2.41e-4 h -2.54e-4 v -2.41e-4 c -0.189473,-0.392745 -0.385409,-0.782725 -0.574357,-1.175713 -0.474419,0.83684 -1.004418,1.644437 -1.555994,2.438655 -0.09942,0.144368 -0.200626,0.287489 -0.303415,0.429548 1.793983,2.110048 3.560979,4.240794 5.315712,6.380487 1.699194,-1.189399 3.36772,-2.455241 5.165986,-3.490596 0.107069,-0.05369 0.206525,-0.127884 0.313083,-0.182946 0.200099,-0.244387 0.391401,-0.49475 0.566177,-0.755126 v -2.41e-4 h 2.54e-4 2.54e-4 v 2.41e-4 l -2.54e-4,2.42e-4 c -0.174574,0.260078 -0.365331,0.510303 -0.565186,0.754418 0.05851,-0.03015 0.119216,-0.05468 0.18443,-0.06672 0.09174,-0.01693 0.131103,0.04507 0.140553,0.132495 -0.01245,-0.06142 -0.07574,-0.143976 -0.140306,-0.132024 -0.06564,0.01214 -0.126798,0.03677 -0.185668,0.06719 -0.266688,0.325699 -0.54923,0.64052 -0.830176,0.953158 -0.987151,1.14159 -2.178657,2.08456 -3.427052,2.954017 -0.218836,0.152802 -0.439926,0.302202 -0.663101,0.448407 0.281767,0.344345 0.563268,0.688851 0.844555,1.033553 1.083321,-1.037249 2.134139,-2.104312 3.115457,-3.230795 0.534284,-0.645524 0.598375,-0.663183 0.972463,-1.292647 0.0097,-0.01639 0.02179,-0.03596 0.03545,-0.05823 -0.01172,0.0195 -0.02336,0.03895 -0.03495,0.05847 -0.374024,0.629412 -0.438269,0.647227 -0.972464,1.292648 -0.981358,1.126528 -2.032349,2.193688 -3.115704,3.231029 0.729474,0.893937 1.457635,1.788888 2.185381,2.684077 1.970322,2.414404 3.913608,4.84992 5.961459,7.205868 l 0.446694,0.502396 2.54e-4,2.41e-4 v 2.42e-4 h -2.54e-4 -2.54e-4 C 69.232306,57.699093 69.08339,57.531615 68.934503,57.364156 66.886647,55.008208 64.943125,52.572695 62.972796,50.158288 62.245051,49.2631 61.516874,48.368161 60.787415,47.474211 c -0.922412,0.883219 -1.868237,1.744787 -2.814769,2.603213 -0.406159,0.379938 -0.823342,0.748939 -1.244397,1.113946 0.671854,0.569963 1.352133,1.131163 2.040119,1.683529 -0.688044,-0.55232 -1.36852,-1.113336 -2.040368,-1.683295 -0.929797,0.806017 -1.8787,1.592746 -2.770891,2.436062 -0.0868,0.08734 -0.188247,0.163426 -0.260283,0.262162 -0.02625,0.03596 -0.09712,0.217987 0.02181,0.246364 0.264336,0.06302 0.93204,-0.128859 1.163588,-0.177053 1.404389,-0.323875 2.823397,-0.584715 4.251528,-0.792375 h 2.54e-4 c 0.04408,-0.0064 0.08828,-0.01279 0.132374,-0.0191 1.178436,-0.161906 2.370646,-0.248693 3.561406,-0.256266 0.407183,0.01261 0.951587,-0.02008 1.224568,0.341138 0.06173,0.08169 0.09669,0.178811 0.145014,0.268291 0.0409,0.102981 0.08179,0.206093 0.122704,0.309074 v 2.42e-4 2.41e-4 h -2.54e-4 v -2.41e-4 h -2.54e-4 v -2.42e-4 c -0.04089,-0.102967 -0.08183,-0.205872 -0.122703,-0.308839 -0.04828,-0.08943 -0.08308,-0.186651 -0.144768,-0.26829 -0.272871,-0.361131 -0.81727,-0.328266 -1.224318,-0.340903 -1.190736,0.0076 -2.382751,0.09437 -3.561159,0.256267 -0.044,0.0063 -0.0879,0.0127 -0.131878,0.0191 1.191972,0.947935 2.40624,1.870204 3.63875,2.768712 0.602928,0.43954 1.219295,0.862014 1.828918,1.293119 1.273816,0.879391 2.56384,1.738451 3.881431,2.557712 0.114162,0.07098 1.27974,0.780342 1.48832,0.886677 0.167301,0.08529 0.347528,0.145204 0.521308,0.217838 0.136438,0.03903 0.272823,0.07812 0.409263,0.11717 h 2.54e-4 v 2.42e-4 2.41e-4 h -2.54e-4 -2.54e-4 c -0.136457,-0.03904 -0.2728,-0.07812 -0.409263,-0.117171 -0.173791,-0.07265 -0.353992,-0.132775 -0.521307,-0.218074 -0.208587,-0.106339 -1.374158,-0.815458 -1.488321,-0.88644 -1.31761,-0.819267 -2.60785,-1.678315 -3.881678,-2.557712 -0.609628,-0.431109 -1.225735,-0.853815 -1.828671,-1.293355 -1.232591,-0.898568 -2.446956,-1.820956 -3.638996,-2.768948 -1.428226,0.207662 -2.847296,0.468476 -4.251775,0.792372 -0.231462,0.04818 -0.900105,0.240209 -1.164331,0.176818 -0.119041,-0.02856 -0.04795,-0.210939 -0.02157,-0.247073 0.07203,-0.09874 0.173481,-0.174586 0.260282,-0.261923 0.892187,-0.843311 1.84093,-1.630222 2.770645,-2.436298 -0.697031,-0.591331 -1.384859,-1.192274 -2.062676,-1.803294 -0.155017,0.07666 -0.309901,0.153527 -0.464295,0.231276 -0.158198,0.08689 -0.323611,0.162525 -0.48239,0.248722 -0.01871,0.01317 -0.03587,0.0251 -0.05156,0.03607 0.01515,-0.01068 0.03162,-0.02238 0.04958,-0.03513 -0.02407,0.01308 -0.04792,0.02643 -0.07164,0.04008 -0.02598,0.01495 -0.119963,0.08564 -0.128405,0.09572 -0.0084,0.0014 0.09933,-0.07937 0.128158,-0.09595 0.02492,-0.01434 0.05005,-0.02848 0.07536,-0.0422 0.01536,-0.01091 0.03183,-0.02264 0.04933,-0.03513 0.250196,-0.19188 0.501354,-0.382505 0.753332,-0.572179 -1.183622,-1.071684 -2.33623,-2.174283 -3.452833,-3.309536 -0.503537,-0.514834 -1.014368,-1.023359 -1.518561,-1.537598 -0.300836,0.282083 -0.604934,0.560401 -0.886696,0.860036 v 2.42e-4 h -2.54e-4 -2.54e-4 v -2.42e-4 -2.41e-4 -2.42e-4 c 0.281733,-0.299604 0.586111,-0.577984 0.886945,-0.860036 -0.288397,-0.294147 -0.574713,-0.59007 -0.856206,-0.890213 -0.761281,-0.811727 -3.071597,-3.441259 -3.801859,-4.342853 -0.02764,-0.03412 -0.055,-0.06842 -0.0823,-0.102791 -0.277937,0.670861 -0.543504,1.346503 -0.793738,2.027735 -0.301555,0.810707 -0.379591,0.996671 -0.63856,1.773117 -0.157615,0.47257 -0.332915,0.965306 -0.335889,1.467814 v 2.41e-4 l -2.54e-4,2.42e-4 h -2.54e-4 v -2.42e-4 -2.41e-4 c 0.003,-0.502557 0.17826,-0.995198 0.335889,-1.467814 0.258953,-0.776409 0.337025,-0.962701 0.63856,-1.773353 0.250271,-0.681323 0.515763,-1.357026 0.793738,-2.027969 -0.373365,-0.47012 -0.716252,-0.961782 -1.072613,-1.443768 -1.163956,-1.574286 -0.895288,-1.207212 -1.878246,-2.63221 -0.809042,-1.189121 -1.597716,-2.390212 -2.366092,-3.603523 v -2.41e-4 h 2.54e-4 2.54e-4 c 0.768372,1.213311 1.557051,2.414404 2.36609,3.603524 0.982955,1.424992 0.71405,1.057929 1.878001,2.63221 0.356344,0.481969 0.699262,0.973459 1.072611,1.443531 0.61278,-1.479028 1.286052,-2.935003 1.989797,-4.377273 0.397975,-0.808476 0.813687,-1.609447 1.251835,-2.399049 -1.22972,-1.467975 -2.453251,-2.940553 -3.670726,-4.417823 -0.644963,-0.803614 -1.253162,-1.629663 -1.863871,-2.456808 v -2.41e-4 -2.41e-4 h 2.54e-4 2.54e-4 v 2.41e-4 c 0.610707,0.827145 1.218909,1.653195 1.863869,2.456809 1.217424,1.477209 2.440868,2.949668 3.670479,4.417587 0.431092,-0.776868 0.883886,-1.54267 1.362641,-2.293901 0.478562,-0.711682 0.967325,-1.418062 1.469481,-2.115199 0.0071,-0.05105 0.01447,-0.10195 0.02157,-0.153006 -0.228762,-0.172479 -0.453742,-0.34985 -0.67376,-0.533042 -1.034054,-0.859726 -2.029476,-1.769292 -2.843772,-2.826946 -0.293289,-0.385458 -0.790031,-0.980829 -0.840836,-1.474651 v -2.42e-4 h 2.54e-4 2.53e-4 v 2.42e-4 c 0.05082,0.493694 0.547608,1.088815 0.840837,1.47418 0.814271,1.057621 1.8095,1.967248 2.843523,2.826945 0.219973,0.183157 0.4448,0.360357 0.673513,0.532807 0.0046,-0.03278 0.0091,-0.06553 0.01363,-0.09831 0.136072,-0.94498 0.291133,-1.887542 0.391911,-2.836846 -0.357821,-0.94434 -0.732557,-1.883397 -1.057241,-2.838498 V 21.9612 h 2.54e-4 2.54e-4 v 2.42e-4 c 0.324564,0.954761 0.699035,1.893364 1.056747,2.837318 0.0015,-0.01403 0.003,-0.02817 0.0045,-0.0422 0.07413,-0.670422 0.143875,-1.343168 0.139561,-2.018069 v -2.41e-4 h 2.54e-4 2.54e-4 v 2.41e-4 c 0.0045,0.674918 -0.06543,1.347866 -0.139561,2.018303 -0.0015,0.01431 -0.0029,0.02859 -0.0045,0.04291 0.05461,0.144118 0.108776,0.288394 0.162367,0.432846 0.148036,0.421005 0.296373,0.841956 0.445703,1.262472 0.08128,-0.10934 0.161874,-0.219288 0.240948,-0.330059 0.03122,-0.04579 0.06247,-0.09166 0.0937,-0.137445 v -2.41e-4 h 2.54e-4 v 2.41e-4 h 2.54e-4 v 2.42e-4 h -2.54e-4 c -0.03122,0.04579 -0.06223,0.09165 -0.09345,0.137444 -0.07916,0.110886 -0.159801,0.220841 -0.241195,0.330295 0.269372,0.758547 0.541732,1.516032 0.820014,2.271503 0.204929,-0.263323 0.405924,-0.529547 0.60683,-0.794967 0.438929,-0.596129 0.885462,-1.185785 1.390652,-1.73304 0.144009,-0.156005 0.280806,-0.319036 0.438761,-0.462315 0.250412,-0.227151 0.522715,-0.431207 0.784071,-0.646914 1.818412,-1.411443 3.760858,-2.673602 5.698698,-3.930987 1.280211,-0.834065 2.574688,-1.651678 3.822185,-2.529894 0.838227,-0.596898 1.639622,-1.237824 2.441946,-1.877085 0.729686,-0.580676 1.423738,-1.19982 2.153155,-1.780898 0.655318,-0.506703 1.318542,-1.004043 1.978891,-1.504828 0.448161,-0.324016 0.866066,-0.683631 1.306865,-1.016106 0.123621,-0.08166 0.236342,-0.176349 0.348283,-0.271591 z m -26.523773,5.240137 c 0.03695,0.104183 0.07618,0.207755 0.107832,0.313555 0.02716,0.08371 0.03856,0.170835 0.05156,0.257208 v 2.42e-4 h -2.54e-4 v 2.41e-4 h -2.54e-4 v -2.41e-4 -2.42e-4 c -0.01303,-0.08636 -0.02441,-0.173284 -0.05156,-0.256972 -0.03166,-0.105823 -0.07046,-0.209588 -0.107335,-0.313791 z m 4.124857,7.342607 c -0.100781,0.949025 -0.255626,1.891437 -0.391663,2.836138 -0.0046,0.03283 -0.0091,0.06572 -0.01363,0.09855 0.01915,0.01444 0.0383,0.02877 0.05751,0.04314 0.06053,-0.08368 0.121272,-0.167202 0.182197,-0.250608 0.252652,-0.347595 0.517128,-0.687548 0.773659,-1.032609 C 51.770098,26.07483 51.621585,25.65386 51.47351,25.232744 51.420043,25.08862 51.365876,24.944638 51.311391,24.80084 Z m 0.608318,1.695082 c -0.256521,0.344945 -0.521088,0.684894 -0.77366,1.032374 -0.06092,0.0834 -0.121676,0.166934 -0.182196,0.250608 0.535773,0.400953 1.092333,0.776223 1.657131,1.139878 0.03968,-0.05035 0.07912,-0.10077 0.118491,-0.151355 -0.278278,-0.75545 -0.550432,-1.512988 -0.819766,-2.271505 z m -1.013862,1.240073 c -0.007,0.05063 -0.014,0.101429 -0.02107,0.152065 0.02614,-0.03629 0.05236,-0.07268 0.07858,-0.108921 -0.01915,-0.01433 -0.03842,-0.02875 -0.05751,-0.04314 z m 0.05776,0.04338 c -0.02634,0.03641 -0.05257,0.07292 -0.07883,0.109391 -0.159316,1.140125 -0.327822,2.279109 -0.5342,3.412326 0.364552,-0.326279 0.721566,-0.660074 1.068399,-1.00314 0.432277,-0.433934 0.824863,-0.900508 1.201762,-1.378699 -0.564847,-0.363677 -1.121343,-0.738907 -1.657131,-1.139878 z m -0.07957,0.110335 c -0.501971,0.696961 -0.99054,1.402995 -1.468986,2.11449 -0.478795,0.751304 -0.931503,1.517181 -1.36264,2.294137 0.159223,0.190082 0.3185,0.380132 0.477928,0.570057 0.217877,-0.191489 0.437079,-0.381541 0.658639,-0.569113 0.39305,-0.325821 0.780963,-0.657718 1.16086,-0.997718 0.206342,-1.133029 0.374908,-2.271933 0.534199,-3.411853 z m 1.855689,0.878188 c -0.03928,0.05046 -0.07865,0.100885 -0.118242,0.15112 0.07588,0.04885 0.151906,0.09746 0.228057,0.145932 -0.0367,-0.09897 -0.07333,-0.198007 -0.109815,-0.297052 z m -0.11849,0.151591 c -0.376969,0.478269 -0.769703,0.944977 -1.202009,1.378934 -0.346967,0.343199 -0.704207,0.676984 -1.068893,1.003376 -0.02371,0.130177 -0.04788,0.260394 -0.07263,0.390411 -0.183756,0.871676 -0.360995,1.744636 -0.533704,2.618301 0.721487,0.854906 1.445051,1.708107 2.170756,2.559835 0.722686,0.831586 1.440236,1.667033 2.153403,2.505845 0.102747,-0.142004 0.203784,-0.285003 0.303168,-0.429311 0.551646,-0.79432 1.081767,-1.602151 1.556241,-2.439127 C 55.822437,36.289095 55.719522,36.069561 55.620925,35.848109 54.96575,34.394126 54.355731,32.922455 53.76003,31.44561 53.447182,30.6554 53.144904,29.861841 52.849785,29.065893 52.773445,29.017303 52.6973,28.968463 52.621232,28.919489 Z m -2.271398,2.383017 c -0.379765,0.339871 -0.767702,0.671539 -1.160612,0.997246 -0.221527,0.187544 -0.44079,0.37765 -0.658639,0.569114 0.403679,0.480896 0.808164,0.961277 1.213164,1.441174 0.172627,-0.873523 0.349718,-1.746232 0.533457,-2.61783 0.02472,-0.129839 0.04895,-0.259702 0.07263,-0.389704 z m -2.297675,0.996303 c -0.438102,0.789526 -0.853906,1.590428 -1.251834,2.398813 -0.703782,1.442345 -1.377234,2.898387 -1.990045,4.377509 0.02731,0.03438 0.0549,0.06865 0.08255,0.102789 0.730247,0.901576 3.040601,3.531151 3.801859,4.342853 0.281521,0.300172 0.567778,0.596232 0.856206,0.890449 0.01993,-0.01868 0.03985,-0.03739 0.05974,-0.05611 0.705407,-0.668286 1.41101,-1.338136 2.056231,-2.060267 0.844894,-0.93862 1.664262,-1.899926 2.401044,-2.918182 -0.713168,-0.838844 -1.430701,-1.67448 -2.153404,-2.506082 -0.725639,-0.851648 -1.449059,-1.704772 -2.170508,-2.559598 -0.143372,0.725272 -0.283726,1.450996 -0.421905,2.177202 -0.22279,1.115583 -0.399884,2.238895 -0.521309,3.368476 -0.05522,0.523269 -0.08915,1.048204 -0.114523,1.573432 v 2.42e-4 h -2.54e-4 v -2.42e-4 c 0.02539,-0.52524 0.05905,-1.050156 0.114277,-1.573432 0.121423,-1.129594 0.298763,-2.253118 0.521556,-3.368712 0.138196,-0.726284 0.278325,-1.452141 0.421658,-2.177438 -0.405073,-0.479961 -0.809411,-0.960446 -1.213165,-1.441409 -0.221015,0.19425 -0.440649,0.389942 -0.659876,0.585852 h -2.54e-4 -2.54e-4 v -2.41e-4 l 2.54e-4,-2.42e-4 c 0.219205,-0.195888 0.438893,-0.39163 0.659878,-0.585853 -0.159399,-0.189881 -0.318735,-0.379783 -0.477929,-0.569821 z m 6.015995,7.078325 c -0.736754,1.018203 -1.555935,1.979362 -2.400795,2.917946 -0.64523,0.722142 -1.351065,1.392208 -2.056479,2.060503 -0.01985,0.01869 -0.03961,0.03746 -0.05949,0.05611 0.504165,0.514283 1.014808,1.022797 1.518316,1.537599 1.116608,1.135259 2.269194,2.237842 3.452831,3.309535 1.31022,-0.986247 2.642936,-1.944758 3.98133,-2.89649 0.294656,-0.198348 0.587718,-0.400534 0.879754,-0.604951 -1.754646,-2.139702 -3.521552,-4.270208 -5.315463,-6.380251 z m 10.794285,2.707652 c -0.106111,0.055 -0.205415,0.128752 -0.312092,0.182239 -1.798279,1.035355 -3.466821,2.301188 -5.165986,3.490597 0.186269,0.227132 0.372479,0.454246 0.558492,0.681569 0.223172,-0.146192 0.444272,-0.295373 0.6631,-0.448171 1.248369,-0.869433 2.43968,-1.812453 3.426805,-2.954017 0.280683,-0.312343 0.563207,-0.62684 0.829681,-0.952217 z m 0.327708,0.06837 c 0.01426,0.07673 -0.0031,0.169589 -0.03619,0.265461 -0.0047,0.01456 -0.0095,0.02843 -0.01463,0.04149 -0.01964,0.05021 -0.04226,0.09931 -0.06668,0.147584 0.03095,-0.0618 0.05955,-0.126078 0.08131,-0.189077 0.02629,-0.0821 0.04395,-0.18427 0.03619,-0.265461 z m -5.806281,3.604702 c -0.292005,0.204399 -0.584877,0.406622 -0.879507,0.604949 -1.338346,0.951704 -2.671101,1.910048 -3.98133,2.896257 0.04721,0.04274 0.09449,0.08561 0.141793,0.128251 0.569008,-0.281397 1.13967,-0.559902 1.694066,-0.86711 1.222015,-0.651628 2.429857,-1.324886 3.583469,-2.080542 -0.186004,-0.227322 -0.372234,-0.454673 -0.558491,-0.681805 z m 0.558739,0.682041 c -1.153614,0.755711 -2.361443,1.429144 -3.583469,2.080778 -0.554344,0.307179 -1.125117,0.585505 -1.694067,0.866873 0.677792,0.610998 1.365669,1.211984 2.062676,1.803295 0.421033,-0.365046 0.838229,-0.733999 1.244398,-1.113945 0.94656,-0.858454 1.892566,-1.720006 2.815017,-2.603213 -0.281305,-0.344738 -0.56277,-0.689406 -0.844555,-1.033788 z m -5.419824,2.8194 c -0.252036,0.189709 -0.503338,0.380501 -0.75358,0.572415 -0.01685,0.01191 -0.03248,0.02301 -0.04735,0.03348 0.157632,-0.08536 0.321472,-0.160394 0.478424,-0.246601 0.154333,-0.07772 0.30909,-0.154644 0.464046,-0.231276 -0.04729,-0.04263 -0.09436,-0.08529 -0.141544,-0.128016 z" /></clipPath><radialGradient
       gradientUnits="userSpaceOnUse"
       cx="350"
       cy="216.5"
       r="250"
       id="gradient-0"><stop
         offset="0"
         style="stop-color:#000000;stop-opacity:0;"
         id="stop1-4" /><stop
         offset="1"
         style="stop-color: #758d29"
         id="stop2-8" /></radialGradient><filter
       id="black-and-white-filter-0"
       bx:preset="black-and-white 1 -1"
       color-interpolation-filters="sRGB"
       x="-0.023569274"
       y="-0.031425406"
       width="1.0471385"
       height="1.0471385"><feColorMatrix
         type="saturate"
         values="0"
         id="feColorMatrix2" /><feComponentTransfer
         id="feComponentTransfer2"><feFuncR
           type="discrete"
           tableValues="0 0 0 0 0 0 0 0 0 0 0 0 0 0 0 0 0 0 0 0 0 0 0 0 0 0 0 0 0 0 0 0 0 0 0 0 0 0 0 0 0 0 0 0 0 0 0 0 0 0 0 0 0 0 0 0 0 0 0 0 0 0 0 0 0 0 0 0 0 0 0 0 0 0 0 0 0 0 0 0 0 0 0 0 0 0 0 0 0 0 0 0 0 0 0 0 0 0 0 0 0 0 0 0 0 0 0 0 0 0 0 0 0 0 0 0 0 0 0 0 0 0 0 0 0 0 0 0 0 0 0 0 0 0 0 0 0 0 0 0 0 0 0 0 0 0 0 0 0 0 0 0 0 0 0 0 0 0 0 0 0 0 0 0 0 0 0 0 0 0 0 0 0 0 0 0 0 0 0 0 0 0 0 0 0 0 0 0 0 0 0 0 0 0 0 0 0 0 0 0 0 0 0 0 0 0 0 0 0 0 0 0 0 0 0 0 0 0 0 0 0 0 0 0 0 0 0 0 0 0 0 0 0 0 0 0 0 0 0 0 0 0 0 0 0 0 0 0 0 0 1 1 1 1 1 "
           id="feFuncR2" /><feFuncG
           type="discrete"
           tableValues="0 0 0 0 0 0 0 0 0 0 0 0 0 0 0 0 0 0 0 0 0 0 0 0 0 0 0 0 0 0 0 0 0 0 0 0 0 0 0 0 0 0 0 0 0 0 0 0 0 0 0 0 0 0 0 0 0 0 0 0 0 0 0 0 0 0 0 0 0 0 0 0 0 0 0 0 0 0 0 0 0 0 0 0 0 0 0 0 0 0 0 0 0 0 0 0 0 0 0 0 0 0 0 0 0 0 0 0 0 0 0 0 0 0 0 0 0 0 0 0 0 0 0 0 0 0 0 0 0 0 0 0 0 0 0 0 0 0 0 0 0 0 0 0 0 0 0 0 0 0 0 0 0 0 0 0 0 0 0 0 0 0 0 0 0 0 0 0 0 0 0 0 0 0 0 0 0 0 0 0 0 0 0 0 0 0 0 0 0 0 0 0 0 0 0 0 0 0 0 0 0 0 0 0 0 0 0 0 0 0 0 0 0 0 0 0 0 0 0 0 0 0 0 0 0 0 0 0 0 0 0 0 0 0 0 0 0 0 0 0 0 0 0 0 0 0 0 0 0 0 1 1 1 1 1 "
           id="feFuncG2" /><feFuncB
           type="discrete"
           tableValues="0 0 0 0 0 0 0 0 0 0 0 0 0 0 0 0 0 0 0 0 0 0 0 0 0 0 0 0 0 0 0 0 0 0 0 0 0 0 0 0 0 0 0 0 0 0 0 0 0 0 0 0 0 0 0 0 0 0 0 0 0 0 0 0 0 0 0 0 0 0 0 0 0 0 0 0 0 0 0 0 0 0 0 0 0 0 0 0 0 0 0 0 0 0 0 0 0 0 0 0 0 0 0 0 0 0 0 0 0 0 0 0 0 0 0 0 0 0 0 0 0 0 0 0 0 0 0 0 0 0 0 0 0 0 0 0 0 0 0 0 0 0 0 0 0 0 0 0 0 0 0 0 0 0 0 0 0 0 0 0 0 0 0 0 0 0 0 0 0 0 0 0 0 0 0 0 0 0 0 0 0 0 0 0 0 0 0 0 0 0 0 0 0 0 0 0 0 0 0 0 0 0 0 0 0 0 0 0 0 0 0 0 0 0 0 0 0 0 0 0 0 0 0 0 0 0 0 0 0 0 0 0 0 0 0 0 0 0 0 0 0 0 0 0 0 0 0 0 0 0 1 1 1 1 1 "
           id="feFuncB2" /></feComponentTransfer></filter><rect
       id="SVGID_1_"
       x="147"
       y="16.3"
       width="587"
       height="817.9" /><clipPath
       clipPathUnits="userSpaceOnUse"
       id="clipPath6"><circle
         style="display:none;fill:#000000;fill-opacity:0.436183;fill-rule:evenodd;stroke:#000000;stroke-width:0;stroke-linecap:round;stroke-linejoin:round;stroke-miterlimit:0;paint-order:markers fill stroke"
         id="circle6"
         cx="175.67067"
         cy="32.5019"
         r="28.59836" /></clipPath><inkscape:path-effect
       effect="powerclip"
       message=""
       id="path-effect6"
       is_visible="true"
       lpeversion="1"
       inverse="true"
       flatten="false"
       hide_clip="false" /><linearGradient
       inkscape:collect="always"
       xlink:href="#swatch2152"
       id="linearGradient1"
       gradientUnits="userSpaceOnUse"
       x1="87.838745"
       y1="50.107613"
       x2="104.99991"
       y2="50.107613" /><clipPath
       clipPathUnits="userSpaceOnUse"
       id="clipPath11"><path
         d="m 92.482958,225.87949 -0.0016,-11.75014 2.368238,-2.6e-4 0.865851,3.82551 26.005163,-0.004 0.91035,-3.82574 2.36824,-2.6e-4 0.002,11.75014 -2.36824,2.6e-4 -0.91139,-3.82551 -26.005161,0.004 -0.864809,3.82574 z"
         id="path11"
         style="font-size:45.5432px;font-family:'Sans Serif Collection';-inkscape-font-specification:'Sans Serif Collection';fill-rule:evenodd;stroke:#000000;stroke-width:0;stroke-linecap:round;stroke-linejoin:round;stroke-miterlimit:0;paint-order:markers fill stroke"
         aria-label="I" /></clipPath></defs><g
     id="g2182-1"
     transform="matrix(1.4136663,0,0,1.4136663,53.411138,-214.59223)"
     style="display:inline;fill:#cd0000;fill-opacity:1"><g
       id="g2152-5"
       transform="translate(-59.805228,164.07978)"
       style="fill:#cd0000;fill-opacity:1"><path
         style="opacity:1;fill:#cd0000;fill-opacity:1;fill-rule:nonzero;stroke:#ff0808;stroke-width:0;stroke-miterlimit:4;stroke-dasharray:none;stroke-opacity:1"
         d="M 104.94441,10.065687 122.16126,65.31802 105,89.999997 Z"
         id="path2141-2"
         sodipodi:nodetypes="cccc" /><path
         style="opacity:1;fill:#cd0000;fill-opacity:1;fill-rule:nonzero;stroke:url(#linearGradient1);stroke-width:0;stroke-linejoin:miter;stroke-miterlimit:6;stroke-dasharray:none;stroke-dashoffset:0;stroke-opacity:1;paint-order:markers fill stroke"
         d="m 104.94441,10.065687 0.0555,80.083849 L 87.838742,65.31802 Z"
         id="path2142-7" /><path
         style="opacity:1;fill:#cd0000;fill-opacity:1;fill-rule:nonzero;stroke:#ff0808;stroke-width:0;stroke-miterlimit:4;stroke-dasharray:none;stroke-opacity:1"
         d="M 122.16126,65.31802 177.5,65.385071 105,89.999997 Z"
         id="path2143-6"
         sodipodi:nodetypes="cccc" /><path
         style="opacity:1;fill:#cd0000;fill-opacity:1;fill-rule:nonzero;stroke:#ff0808;stroke-width:0;stroke-miterlimit:4;stroke-dasharray:none;stroke-opacity:1"
         d="M 32.500001,65.385068 87.838742,65.31802 104.99991,90.149536 Z"
         id="path2144-1" /><path
         style="opacity:1;fill:#cd0000;fill-opacity:1;fill-rule:nonzero;stroke:#ff0808;stroke-width:0;stroke-miterlimit:4;stroke-dasharray:none;stroke-opacity:1"
         d="M 32.500001,65.385068 104.99988,90.149536 77.232501,99.640534 Z"
         id="path2145-4" /><path
         style="opacity:1;fill:#cd0000;fill-opacity:1;fill-rule:nonzero;stroke:#ff0808;stroke-width:0;stroke-miterlimit:4;stroke-dasharray:none;stroke-opacity:1"
         d="M 77.232501,99.640534 60.192533,154.99999 104.99991,90.149536 Z"
         id="path2146-2" /><path
         style="opacity:1;fill:#cd0000;fill-opacity:1;fill-rule:nonzero;stroke:#ff0808;stroke-width:0;stroke-miterlimit:4;stroke-dasharray:none;stroke-opacity:1"
         d="M 60.192533,154.99999 105,120.85302 104.99988,90.149536 Z"
         id="path2147-3" /><path
         style="opacity:1;fill:#cd0000;fill-opacity:1;fill-rule:nonzero;stroke:#ff0808;stroke-width:0;stroke-miterlimit:4;stroke-dasharray:none;stroke-opacity:1"
         d="m 105,89.999997 v 30.853023 l 44.80746,34.14697 z"
         id="path2148-2"
         sodipodi:nodetypes="cccc" /><path
         style="opacity:1;fill:#cd0000;fill-opacity:1;fill-rule:nonzero;stroke:#ff0808;stroke-width:0;stroke-miterlimit:4;stroke-dasharray:none;stroke-opacity:1"
         d="M 149.80746,154.99999 132.7675,99.640537 105,89.999997 Z"
         id="path2149-2"
         sodipodi:nodetypes="cccc" /><path
         style="opacity:1;fill:#cd0000;fill-opacity:1;fill-rule:nonzero;stroke:#ff0808;stroke-width:0;stroke-miterlimit:4;stroke-dasharray:none;stroke-opacity:1"
         d="M 177.5,65.385071 132.7675,99.640537 105,89.999997 Z"
         id="path2150-1"
         sodipodi:nodetypes="cccc" /></g></g><g
     inkscape:label="Vrstva 1"
     inkscape:groupmode="layer"
     id="layer1"
     transform="translate(62.863711,3.6548669)"><g
       id="g1"
       transform="translate(-62.877045,17.799559)"
       style="display:inline"><path
         style="display:inline;mix-blend-mode:darken;fill-opacity:0.9;stroke:#000000;stroke-width:13.6075;stroke-dasharray:none;stroke-opacity:1;paint-order:fill;filter:url(#black-and-white-filter-0)"
         d="M 600,433 H 100 L 350.001,0 Z M 102.088,431.883 H 597.913 L 350.001,2.498 Z"
         transform="matrix(0.29395571,0,0,0.29395571,14.417348,51.839642)"
         id="path2" /><path
         d="m 72.727287,12.74514 h 6.042023 l 4.118195,25.550842 h 0.390777 L 82.526787,12.74514 h 6.553039 V 61.742638 H 83.278282 L 78.76931,34.568565 h -0.240479 l 0.721436,27.174073 h -6.52298 z"
         id="text1"
         style="font-size:61.5625px;font-family:'Gill Sans MT Ext Condensed Bold';-inkscape-font-specification:'Gill Sans MT Ext Condensed Bold, ';fill-rule:evenodd;stroke:#000000;stroke-width:0;stroke-linecap:round;stroke-miterlimit:10;stroke-opacity:0;paint-order:markers fill stroke"
         transform="scale(1.4542349,0.68764682)"
         aria-label="N" /><path
         d="m 31.514283,183.47908 5.67778,5.2704 -22.92218,24.69394 -5.6777795,-5.2704 z"
         id="text2"
         style="font-size:55.2533px;font-family:'Gill Sans MT Ext Condensed Bold';-inkscape-font-specification:'Gill Sans MT Ext Condensed Bold, ';fill-rule:evenodd;stroke:#000000;stroke-width:5.22079;stroke-linecap:round;stroke-miterlimit:10;stroke-opacity:0;paint-order:markers fill stroke"
         aria-label="I" /><path
         d="m 227.85627,203.25815 q -0.99767,2.00143 -3.18485,4.16048 -6.02371,5.94626 -12.85434,6.27006 -6.79477,0.2884 -12.55978,-5.55169 -6.44751,-6.53149 -4.43726,-15.10916 1.32198,-5.5456 5.62464,-9.79293 1.97204,-1.94669 4.32254,-3.36656 l 3.00593,3.04509 q -1.48047,0.93862 -2.59198,2.03583 -2.18719,2.15907 -2.62534,4.79903 -0.73647,4.56098 4.52028,9.8862 5.54718,5.61944 9.1338,5.73864 3.60794,0.0691 6.54809,-2.83324 1.11152,-1.09723 1.9326,-2.48866 z"
         id="text3"
         style="font-size:66.0914px;font-family:'Gill Sans MT Ext Condensed Bold';-inkscape-font-specification:'Gill Sans MT Ext Condensed Bold, ';white-space:pre;inline-size:17.2072;fill-rule:evenodd;stroke:#000000;stroke-width:6.24486;stroke-linecap:round;stroke-miterlimit:10;stroke-opacity:0;paint-order:markers fill stroke"
         aria-label="C" /></g></g><g
     inkscape:groupmode="layer"
     id="layer2"
     inkscape:label="Vrstva 2"
     style="display:inline" /><style
     type="text/css"
     id="style1">
	.st0{clip-path:url(#SVGID_2_);fill:#E50046;}
</style><path
     d="m 87.488443,215.03572 -3.462313,13.09133 q -0.03445,0.12058 -0.137804,0.63734 -0.310058,1.36081 -0.706243,2.1015 -0.275607,0.56844 -0.878497,1.30914 0.499538,0.0345 1.119654,0.0345 1.498613,0 2.497688,-0.18948 0.999076,-0.20671 1.860348,-0.68902 0.861271,-0.48231 1.619191,-1.24023 1.429711,-1.46416 2.18763,-3.39341 0.775145,-1.92925 0.775145,-4.18578 0,-2.06706 -0.620116,-3.75515 -0.620115,-1.68809 -1.722543,-2.65272 -1.102429,-0.98185 -2.53214,-1.06797 z M 75.844046,232.17503 79.943701,218.343 q 0.447861,-1.60197 0.912948,-2.25653 0.292833,-0.37896 0.775145,-0.63734 v -0.0689 h -0.241156 q -0.499538,0 -2.084278,0.56843 -1.73977,0.6029 -2.394336,0.6029 -0.344509,0 -0.482313,-0.12058 -0.120578,-0.12058 -0.120578,-0.41341 0,-0.68902 0.37896,-1.49862 0.396185,-0.82682 1.016301,-1.48138 0.620116,-0.65457 1.274682,-0.93018 1.498614,-0.58566 4.065204,-0.91295 2.56659,-0.32728 5.581042,-0.32728 3.238383,0 5.51214,1.0163 2.273758,1.0163 3.445088,3.01445 1.188555,1.99815 1.188555,4.82313 0,2.84219 -1.136879,5.73607 -1.119653,2.87665 -2.98,4.82312 -4.358036,4.61642 -11.644397,4.61642 -2.34266,0 -4.289134,-0.37896 -1.929249,-0.37896 -2.549365,-0.93018 -0.396185,-0.31005 -0.396185,-0.91294 0,-0.15503 0.0689,-0.49954 z m 34.692034,-2.56659 -0.29283,0.24115 q -0.0861,0.0517 -1.15411,0.8785 -2.06705,1.61919 -3.41063,2.56659 -1.34359,0.93018 -2.23931,1.37804 -0.89572,0.43063 -1.44694,0.43063 -0.93017,0 -1.49861,-0.75792 -0.551214,-0.77514 -0.551214,-1.99815 0,-2.06705 0.620114,-4.80589 0.62012,-2.75608 1.67087,-5.42602 1.1541,-2.96277 2.82497,-3.61734 0.58567,-0.25838 1.37804,-0.25838 1.0852,0 1.75699,0.67179 0.67179,0.67179 0.67179,1.77422 0,0.75792 -0.25838,1.60197 -0.25838,0.84404 -0.82682,2.01537 l -0.2067,0.49954 q -1.48139,3.13503 -1.48139,3.80682 0,0.39619 0.2756,0.39619 0.25839,0 0.6718,-0.36174 0.41341,-0.36173 1.27468,-1.32636 0.53399,-0.65456 1.51584,-1.63641 l 0.63734,-0.63734 0.55121,-0.58567 q 1.73977,-1.72254 2.8422,-2.48046 1.10243,-0.77515 1.8259,-0.77515 1.37803,0 1.37803,2.39434 0,0.49954 -0.12058,1.77422 -0.2067,2.48046 -0.2067,4.20301 0.0172,0.34451 0.0172,0.63734 0.0172,0.27561 0.0172,0.72347 0.12058,1.1541 0.17225,1.77422 0.12058,0.98185 0.12058,0.98185 0,0.51676 -0.93017,0.91294 Q 115.20417,235 113.98117,235 q -1.11965,0 -1.92925,-0.43064 -0.79237,-0.44786 -1.20578,-1.30913 -0.41341,-0.86127 -0.41341,-2.1015 0,-0.15503 0.0344,-0.53399 0.0345,-0.39619 0.0689,-1.0163 z m 19.03411,-2.18763 v -0.99908 q -0.8785,0.77515 -1.30913,0.77515 -0.24116,0 -0.24116,-0.24116 0,-0.10335 0.10335,-0.43064 0.36174,-1.03352 0.36174,-1.99815 0,-1.39526 -0.60289,-2.89387 -0.25838,-0.77515 -0.63734,-0.77515 -0.18948,0 -0.31006,0.17226 -0.56844,0.65457 -1.0852,1.86035 -0.51677,1.18855 -0.86128,2.60104 -0.32728,1.39526 -0.32728,2.48046 0,2.04983 1.24023,2.04983 0.62012,0 1.65365,-0.72347 1.05075,-0.74069 2.01537,-1.87757 z m 0.53399,-8.18209 0.17225,-0.70624 q 0.53399,-2.35988 0.96463,-3.80682 0.43063,-1.46416 0.8785,-2.46324 0.46508,-1.0163 0.91294,-1.46416 0.72347,-0.77515 2.60105,-0.77515 0.82682,0 1.223,0.0861 0.41341,0.0861 0.65457,0.31006 -0.82682,2.56659 -1.15411,3.8585 -0.31005,1.27468 -0.68901,3.51399 -0.58567,3.65179 -0.58567,6.59734 0,1.94647 0.31006,4.04798 0.32728,2.08428 1.05075,4.65087 -0.91295,0.63734 -1.75699,1.0852 -0.82682,0.44786 -1.58474,0.70624 -0.7407,0.25838 -1.30914,0.25838 -0.99907,0 -1.41248,-0.98185 -0.34451,-0.80959 -0.44786,-1.2919 -0.10336,-0.49954 -0.36174,-2.73885 -2.30821,2.41156 -4.42694,3.80682 -2.1015,1.37804 -3.35896,1.37804 -1.44693,0 -2.37711,-1.17133 -0.91295,-1.18856 -0.91295,-3.0489 0,-1.67087 0.70625,-3.70347 0.72347,-2.04983 1.98092,-3.96185 0.82682,-1.25746 1.6881,-2.11873 0.87849,-0.8785 1.98092,-1.6192 1.99815,-1.30913 3.34174,-1.30913 0.65456,0 1.91202,0.86127 z m 21.56625,6.80405 -0.32728,0.10335 q -1.24023,0.34451 -1.79145,0.34451 -0.67179,0 -0.67179,-0.34451 0,-0.12057 0.27561,-0.63734 0.96462,-1.46416 0.96462,-2.75607 0,-0.74069 -0.25838,-1.34358 -0.25838,-0.62012 -0.56844,-0.62012 -0.27561,0 -0.84405,0.58567 -1.60196,1.73977 -2.54936,3.56566 -0.93017,1.8259 -0.93017,3.25561 0,0.9474 0.37896,1.56752 0.39618,0.62011 0.98185,0.62011 0.49953,0 1.86034,-1.06797 1.37804,-1.06798 3.08336,-2.82498 l 0.46508,-0.37896 z m -1.03352,3.94463 v 0.0689 l -0.0689,-0.0689 q -1.60196,1.87757 -2.94555,3.08335 -1.32636,1.18856 -2.46323,1.79145 -1.11966,0.60289 -2.06706,0.60289 -1.92925,0 -3.1867,-1.29191 -1.25746,-1.29191 -1.25746,-3.27283 0,-1.22301 0.62012,-2.89388 0.62011,-1.67087 1.70531,-3.27283 1.80868,-2.61827 4.54752,-4.44416 2.82497,-1.87758 5.44324,-1.87758 2.20486,0 3.61734,0.91295 1.42971,0.89572 1.42971,2.27376 0,1.0163 -0.70624,2.15318 0.93017,0 1.17133,0.2067 0.24116,0.18948 0.24116,0.91295 0,-0.0689 -0.0861,0.70625 -0.10335,1.70531 -0.10335,3.1867 0,0.77515 0.0172,1.17133 0.0172,0.39619 0.0689,0.91295 0.0517,0.51676 0.10336,0.82682 0.1378,0.8096 0.44786,1.60197 -1.03353,1.0163 -1.98093,1.49861 -0.9474,0.46509 -1.92925,0.46509 -2.65272,0 -2.65272,-4.44417 0,-0.51676 0.0345,-0.80959 z"
     id="text4"
     style="font-size:35.2777px;font-family:Forte;-inkscape-font-specification:Forte;fill-rule:evenodd;stroke:#000000;stroke-width:0;stroke-linecap:round;stroke-linejoin:round;stroke-miterlimit:0;paint-order:markers fill stroke"
     aria-label="Duda" /><path
     d="m -107.11484,108.06384 -3.46232,13.09133 q -0.0344,0.12058 -0.1378,0.63734 -0.31006,1.36081 -0.70624,2.10151 -0.27561,0.56844 -0.8785,1.30913 0.49954,0.0345 1.11965,0.0345 1.49862,0 2.49769,-0.18948 0.99908,-0.2067 1.86035,-0.68902 0.86127,-0.48231 1.61919,-1.24023 1.42971,-1.46416 2.18763,-3.39341 0.77515,-1.92925 0.77515,-4.18578 0,-2.06705 -0.62012,-3.75515 -0.62012,-1.68809 -1.72254,-2.65271 -1.10243,-0.98185 -2.53214,-1.06798 z m -11.6444,17.13931 4.09965,-13.83203 q 0.44787,-1.60196 0.91295,-2.25653 0.29283,-0.37896 0.77515,-0.63734 v -0.0689 h -0.24116 q -0.49954,0 -2.08428,0.56844 -1.73977,0.60289 -2.39433,0.60289 -0.34451,0 -0.48232,-0.12058 -0.12057,-0.12058 -0.12057,-0.41341 0,-0.68902 0.37896,-1.49861 0.39618,-0.82683 1.0163,-1.48139 0.62011,-0.65457 1.27468,-0.93018 1.49861,-0.58566 4.0652,-0.91294 2.56659,-0.32729 5.58105,-0.32729 3.23838,0 5.51214,1.0163 2.273754,1.0163 3.445083,3.01445 1.188556,1.99816 1.188556,4.82313 0,2.8422 -1.136879,5.73607 -1.119654,2.87665 -2.980001,4.82312 -4.358039,4.61642 -11.644399,4.61642 -2.34266,0 -4.28913,-0.37896 -1.92925,-0.37896 -2.54937,-0.93017 -0.39618,-0.31006 -0.39618,-0.91295 0,-0.15503 0.0689,-0.49954 z m 29.98949,-2.53214 q 0.79237,-0.53399 1.20578,-1.06798 0.912948,-1.11965 1.412486,-2.56659 0.396185,-0.9474 0.620116,-2.11873 0.223931,-1.17133 0.223931,-2.18763 0,-0.9474 -0.396185,-0.9474 -0.551214,0 -1.688093,2.42879 -0.671793,1.46416 -1.102428,2.92833 -0.413411,1.44693 -0.413411,2.49768 0,0.36174 0.137804,1.03353 z m 0.03445,0.55121 q 0.18948,1.03353 1.343585,1.03353 1.291908,0 3.35896,-1.51584 1.205781,-0.8785 1.619191,-0.8785 0.516764,0 0.964625,0.27561 0.447861,0.27561 0.447861,0.56844 0,0.31006 -0.499537,0.8096 -0.912949,0.91295 -2.101504,1.79144 -1.188555,0.86127 -2.290983,1.44694 -1.102428,0.56844 -2.204856,0.91295 -1.102428,0.32728 -1.9637,0.32728 -2.15318,0 -3.445088,-1.22301 -1.291908,-1.24023 -1.291908,-3.29005 0,-1.56752 0.671792,-3.53122 0.689018,-1.98092 1.843122,-3.70347 1.36081,-2.01537 3.341735,-3.35896 2.446012,-1.61919 4.685319,-1.61919 1.619192,0 2.53214,1.03353 0.930174,1.0163 0.930174,2.80774 0,1.39526 -0.740694,2.9111 -0.723469,1.51584 -2.15318,2.9111 -1.17133,1.17133 -2.308209,1.8259 -1.119653,0.65456 -1.9637,0.65456 -0.37896,0 -0.775145,-0.18948 z m 18.379545,-8.07873 q 0.689017,-1.94647 1.154104,-4.0652 0.465087,-2.13595 0.465087,-3.27283 0,-0.31006 -0.172254,-0.31006 -0.275607,0 -0.964625,1.24023 -0.689018,1.22301 -1.154104,2.49769 -0.999076,2.80775 -1.55029,4.66809 -0.533988,1.84313 -0.740694,3.10058 -0.206705,1.25746 -0.206705,2.56659 0,1.11966 0.241156,1.63642 0.258382,0.51676 0.809596,0.51676 0.947399,0 2.118729,-0.82682 1.17133,-0.84405 2.118729,-2.20485 0.740694,-1.01631 1.154104,-1.01631 0.533989,0 0.533989,0.84405 0,1.84312 -1.154105,3.60012 -1.154104,1.75699 -2.980001,2.85942 -1.808671,1.0852 -3.703469,1.0852 -2.325434,0 -3.789596,-1.46416 -1.464163,-1.46416 -1.464163,-3.82405 0,-1.92925 0.826821,-4.51306 0.826821,-2.60104 2.204856,-5.21931 1.395261,-2.63549 3.048903,-4.77145 1.653642,-2.13595 3.272833,-3.27283 0.999076,-0.74069 2.222082,-0.74069 0.930174,0 1.688093,0.58566 0.757919,0.56844 1.17133,1.60197 0.41341,1.03352 0.41341,2.29098 0,2.70439 -1.067977,5.28821 -1.050752,2.58382 -2.94555,4.47861 -0.895723,0.91295 -1.722544,1.42972 -0.826821,0.51676 -1.446937,0.51676 -0.60289,0 -0.60289,-0.46509 0,-0.25838 0.447862,-0.98185 0.60289,-0.9474 1.412485,-2.85942 0.0689,-0.18948 0.155029,-0.39619 0.08613,-0.22393 0.206706,-0.60289 z m 10.128555,-3.77237 0.0689,-0.2067 q 1.136879,-3.20393 1.9637,-4.51307 0.396185,-0.62011 1.102428,-1.10243 1.326359,-0.84404 2.497689,-0.84404 0.689017,0 1.050752,0.31006 0.361734,0.31005 0.361734,0.89572 0,0.39618 -0.516763,1.61919 -0.878498,2.0326 -1.309134,3.80682 0.292833,0.0345 0.56844,0.10335 1.033526,0.15503 1.360809,0.36174 0.327284,0.18948 0.327284,0.70624 0,0.91295 -0.465087,1.68809 -0.465087,0.77515 -1.223006,1.13688 -0.56844,0.25839 -1.843122,0.34451 -0.223931,0.67179 -0.499538,1.84312 -0.155029,1.03353 -0.344509,2.85943 -0.103352,0.67179 -0.103352,1.25745 0,2.72162 2.635492,2.72162 h 0.103353 0.05168 q 0.310058,0 0.310058,0.10336 0,0.2756 -0.585665,0.93017 -0.585665,0.65457 -1.291908,1.1541 -0.757919,0.51677 -1.653642,0.82683 -0.895723,0.31005 -1.619191,0.31005 -1.808672,0 -2.94555,-1.223 -1.119654,-1.22301 -1.119654,-3.23839 0,-0.86127 0.292832,-2.25653 0.310058,-1.39526 0.9474,-3.73792 0.103352,-0.41341 0.22393,-0.86127 0.120578,-0.46509 0.137804,-0.55121 -0.689018,-0.0172 -0.98185,-0.29284 -0.292833,-0.2756 -0.292833,-0.89572 0,-1.0852 0.826821,-2.04983 0.844047,-0.96462 1.9637,-1.20578 z m 21.704051,7.69977 -0.327283,0.10336 q -1.240232,0.34451 -1.791446,0.34451 -0.671792,0 -0.671792,-0.34451 0,-0.12058 0.275607,-0.63734 0.964625,-1.46417 0.964625,-2.75607 0,-0.7407 -0.258382,-1.34359 -0.258381,-0.62012 -0.568439,-0.62012 -0.275607,0 -0.844047,0.58567 -1.601966,1.73977 -2.549365,3.56567 -0.930173,1.82589 -0.930173,3.2556 0,0.9474 0.378959,1.56752 0.396185,0.62011 0.98185,0.62011 0.499538,0 1.860348,-1.06797 1.378035,-1.06798 3.083353,-2.82497 l 0.465087,-0.37896 z m -1.033526,3.94463 v 0.0689 l -0.0689,-0.0689 q -1.601966,1.87757 -2.94555,3.08335 -1.326359,1.18856 -2.463238,1.79145 -1.119653,0.60289 -2.067052,0.60289 -1.929249,0 -3.186706,-1.29191 -1.257457,-1.29191 -1.257457,-3.27283 0,-1.22301 0.620115,-2.89388 0.620116,-1.67086 1.705319,-3.27283 1.808671,-2.61827 4.547516,-4.44416 2.824972,-1.87758 5.443238,-1.87758 2.204856,0 3.617342,0.91295 1.429712,0.89573 1.429712,2.27376 0,1.0163 -0.706243,2.15318 0.930174,0 1.17133,0.20671 0.241156,0.18948 0.241156,0.91294 0,-0.0689 -0.08613,0.70625 -0.103353,1.70532 -0.103353,3.1867 0,0.77515 0.01722,1.17133 0.01723,0.39619 0.0689,0.91295 0.05168,0.51676 0.103353,0.82682 0.137803,0.8096 0.447861,1.60197 -1.033526,1.0163 -1.980925,1.49861 -0.947399,0.46509 -1.929249,0.46509 -2.652718,0 -2.652718,-4.44417 0,-0.51676 0.03445,-0.80959 z"
     id="text5"
     style="font-size:35.2777px;font-family:Forte;-inkscape-font-specification:Forte;fill-rule:evenodd;stroke:#000000;stroke-width:0;stroke-linecap:round;stroke-linejoin:round;stroke-miterlimit:0;paint-order:markers fill stroke"
     transform="rotate(-59.248341)"
     aria-label="Delta" /><path
     d="m 168.54057,-76.536761 0.34451,-0.775145 q 4.0652,-9.181159 5.8911,-11.937229 0.29283,-0.37896 0.49953,-0.585665 0.20671,-0.223931 0.46509,-0.396185 0.27561,-0.172254 0.70624,-0.344509 1.24023,-0.533988 3.20393,-0.533988 1.01631,0 1.27469,0.172254 0.2756,0.172255 0.2756,0.775145 0,0.465087 -0.0344,0.999075 -0.1378,3.100579 -0.1378,4.409713 0,3.307284 0.44786,6.270059 0.29283,1.653642 0.86127,3.358961 0.60289,1.515838 1.15411,2.325434 0.65456,0.895723 1.10243,1.309133 0.55121,0.551214 0.55121,0.844047 0,0.533989 -0.91295,1.446937 -1.53306,1.481388 -3.06613,1.481388 -2.15318,0 -3.91017,-1.843122 -0.89572,-0.895723 -1.42971,-1.980926 -0.51677,-1.102428 -0.77515,-2.704394 -0.25838,-1.619191 -0.34451,-4.099654 -0.12057,-2.687169 -0.1378,-3.031677 h -0.0689 q -1.0852,2.084278 -1.80867,3.479538 -0.72347,1.395261 -1.18856,2.308209 -0.44786,0.912948 -1.06798,2.187631 -1.9637,4.065203 -2.56659,4.90925 -0.0345,0.03445 -0.1378,0.155029 -0.10335,0.120578 -0.18948,0.18948 -0.29283,0.275607 -0.67179,0.430636 -0.36174,0.137803 -0.62012,0.137803 -0.72347,0 -1.60196,-0.895723 -0.86127,-0.912948 -1.51584,-2.342659 -0.67179,-1.515839 -1.10243,-3.083354 -0.41341,-1.58474 -0.74069,-3.73792 -0.31006,-2.170405 -0.55122,-5.28821 h -0.0689 q -0.51676,1.136879 -0.77514,1.705319 -0.25839,0.568439 -0.79237,1.756994 -0.53399,1.188556 -0.62012,1.378035 -0.70624,1.567515 -1.48139,3.169481 -0.77514,1.601966 -1.25745,2.463238 -0.46509,0.861272 -1.03353,1.705318 -0.25838,0.396185 -0.91295,1.119654 -1.0163,0.964624 -2.22208,1.515838 -1.20578,0.533989 -2.29098,0.533989 -0.41341,0 -0.72347,-0.206705 -0.31006,-0.206705 -0.31006,-0.533989 0,-0.292832 0.46509,-0.775145 0.25838,-0.310057 1.11965,-1.58474 l 0.99908,-1.550289 q 0.93017,-1.378036 2.80774,-4.943701 l 0.82682,-1.55029 q 2.89388,-5.546591 3.91018,-7.579193 1.0163,-2.049827 1.0163,-2.37711 0,-0.361735 -0.51676,-0.809596 -0.39619,-0.327283 -0.39619,-0.56844 0,-0.378959 0.99908,-0.706242 0.99907,-0.344509 2.1704,-0.344509 2.35989,0 3.35896,1.050751 0.62012,0.654567 1.15411,2.583816 0.53398,1.912024 1.06797,5.563817 0.0345,0.206705 0.0517,0.327283 0.0172,0.103353 0.0344,0.18948 0.0172,0.08613 0.0172,0.223931 0.10335,0.482312 0.10335,0.637341 0.36173,2.222082 0.55121,2.876648 0.18948,0.637342 0.55122,1.119654 z m 30.79908,0.03445 -0.32728,0.103352 q -1.24023,0.344509 -1.79145,0.344509 -0.67179,0 -0.67179,-0.344509 0,-0.120578 0.27561,-0.637341 0.96462,-1.464162 0.96462,-2.75607 0,-0.740694 -0.25838,-1.343584 -0.25838,-0.620116 -0.56844,-0.620116 -0.27561,0 -0.84405,0.585665 -1.60196,1.739769 -2.54936,3.565666 -0.93017,1.825896 -0.93017,3.255608 0,0.947399 0.37896,1.567515 0.39618,0.620115 0.98185,0.620115 0.49953,0 1.86034,-1.067977 1.37804,-1.067977 3.08336,-2.824972 l 0.46508,-0.378959 z m -1.03352,3.944625 v 0.0689 l -0.0689,-0.0689 q -1.60196,1.877573 -2.94555,3.083354 -1.32636,1.188555 -2.46323,1.791445 -1.11966,0.602891 -2.06706,0.602891 -1.92925,0 -3.1867,-1.291908 -1.25746,-1.291908 -1.25746,-3.272834 0,-1.223006 0.62012,-2.893873 0.62011,-1.670868 1.70531,-3.272834 1.80868,-2.618266 4.54752,-4.444163 2.82497,-1.877573 5.44324,-1.877573 2.20486,0 3.61734,0.912949 1.42971,0.895722 1.42971,2.273758 0,1.0163 -0.70624,2.153179 0.93017,0 1.17133,0.206706 0.24116,0.18948 0.24116,0.912948 0,-0.0689 -0.0861,0.706243 -0.10335,1.705318 -0.10335,3.186706 0,0.775145 0.0172,1.17133 0.0172,0.396185 0.0689,0.912948 0.0517,0.516763 0.10336,0.826821 0.1378,0.809596 0.44786,1.601966 -1.03353,1.016301 -1.98093,1.498613 -0.9474,0.465087 -1.92925,0.465087 -2.65272,0 -2.65272,-4.444163 0,-0.516763 0.0345,-0.809596 z m 13.50474,-0.241156 -0.0689,0.344509 q 0,0.292832 -0.0689,0.844046 -0.0689,0.844047 -0.18948,1.378035 -0.12057,0.533989 -0.36173,0.895723 -0.24116,0.344509 -0.65457,0.740694 -1.25745,1.154105 -2.53214,1.154105 -1.03352,0 -1.53306,-0.75792 -0.48231,-0.757919 -0.48231,-2.446012 0,-1.343584 0.29283,-3.307284 0.31006,-1.980926 0.74069,-3.548441 l 0.13781,-0.447861 q 0,-0.103353 0.10335,-0.430636 0.63734,-2.34266 1.17133,-3.462313 0.53399,-1.136879 1.29191,-1.825897 0.67179,-0.533988 1.51584,-0.533988 1.223,0 1.48138,1.481387 0.24116,-0.206705 0.46509,-0.482312 0.49954,-0.60289 0.77515,-0.79237 0.2756,-0.206705 0.63734,-0.206705 1.48139,0 1.48139,2.928324 0,1.601966 -0.34451,3.100579 -0.34451,1.498613 -0.8785,2.446013 -0.51676,0.947399 -1.03353,0.947399 -0.56844,0 -0.56844,-2.15318 0,-1.136879 -0.1378,-1.77422 -0.12058,-0.654567 -0.39619,-1.016301 -0.51676,0.964624 -0.67179,4.409712 -0.12058,1.998151 -0.17225,2.514914 z m 21.99688,8.319887 q -2.41156,3.100579 -3.66902,3.100579 -0.91294,0 -1.92924,-0.723468 -0.99908,-0.706243 -1.87758,-1.92925 -0.87849,-1.20578 -1.39526,-2.618266 -0.51676,-1.412486 -0.51676,-2.687169 0,-0.723468 0.24115,-0.964624 0.10336,-0.103353 0.46509,-0.344509 2.89388,-1.791446 2.89388,-3.393411 0,-0.844047 -0.7407,-0.844047 -0.79237,0 -2.04983,1.533064 -1.24023,1.515839 -2.25653,3.720695 -0.60289,1.39526 -1.03352,1.77422 -0.39619,0.344509 -1.22301,0.344509 -0.91295,0 -1.58474,-0.499538 -0.67179,-0.516763 -1.05075,-1.446937 -0.36174,-0.947399 -0.36174,-2.15318 0,-1.860347 0.46509,-4.065203 0.46509,-2.204856 1.29191,-4.426938 0.84404,-2.222082 1.99815,-4.34081 1.1541,-2.118729 2.41156,-3.737921 2.48046,-3.13503 4.84035,-3.13503 1.17133,0 2.08428,0.533989 0.93017,0.533989 1.42971,1.515839 0.49954,0.98185 0.49954,2.290983 0,1.601966 -0.79237,3.203932 -0.79237,1.58474 -2.06706,2.601041 -1.25745,0.999075 -2.53214,0.999075 -0.60289,0 -0.60289,-0.430636 0,-0.172254 0.31006,-0.809595 1.51584,-2.997227 1.51584,-6.804049 0,-0.98185 -0.24116,-0.98185 -0.17225,0 -0.53399,0.499538 -0.3445,0.499538 -0.67179,1.223006 -1.8948,4.254684 -2.73884,9.801275 -0.0517,0.292832 -0.12058,0.775145 -0.0517,0.482312 -0.1378,1.102428 l 0.0689,0.0689 q 0.70624,-0.999076 1.1541,-1.481388 0.46509,-0.499538 1.22301,-1.067977 2.32543,-1.825897 4.34081,-1.825897 1.03353,0 1.68809,0.60289 0.67179,0.602891 0.67179,1.55029 0,2.325434 -1.48138,4.788672 -0.41341,0.723468 -0.96463,1.429711 -0.53399,0.706243 -1.55029,1.825897 0.62012,1.050752 1.41249,2.118729 0.70624,0.930173 1.77422,1.860347 0.93017,0.775145 1.34358,1.446937 z m 12.72961,-20.394919 q 2.56659,0 2.56659,0.60289 0,0.689017 -1.15411,0.740694 -1.39526,0.08613 -2.60104,0.79237 -1.20578,0.706243 -2.15318,1.929249 -0.93017,1.223006 -1.46416,2.75607 -0.51676,1.533064 -0.51676,3.238383 0,1.877573 0.87849,3.031677 0.8785,1.136879 2.29099,1.136879 1.30913,0 2.29098,-1.343584 0.98185,-1.343585 0.98185,-3.13503 0,-1.464162 -0.62011,-2.738845 -0.60289,-1.291908 -1.77422,-2.170405 -0.49954,-0.396185 -0.49954,-0.56844 0,-0.241156 0.70624,-0.740694 0.79237,-0.533988 1.77422,-0.895722 0.98185,-0.361735 1.65364,-0.361735 0.77515,0 1.46417,0.413411 0.70624,0.396185 1.24023,1.154104 0.53399,0.740694 0.80959,1.722544 0.29283,0.964625 0.29283,2.067053 0,1.825896 -0.68901,3.617342 -0.68902,1.77422 -1.80867,2.876648 -1.44694,1.395261 -3.49677,2.290984 -2.0326,0.878497 -3.87572,0.878497 -1.79145,0 -3.56567,-0.620116 -1.75699,-0.620116 -2.79052,-1.636416 -1.37803,-1.378036 -1.37803,-3.910175 0,-1.998151 0.98185,-3.996302 0.98185,-1.998151 2.65271,-3.617342 1.6881,-1.636417 3.70347,-2.56659 2.03261,-0.947399 4.09966,-0.947399 z m 18.20728,2.75607 0.27561,-0.533989 q 0.43063,-0.895723 0.70624,-1.188555 0.29283,-0.292833 0.77515,-0.292833 1.41248,0 1.41248,3.186707 0,0.930173 -0.1378,1.601965 -0.13781,0.671792 -0.46509,1.291908 -0.39618,0.826821 -1.06798,1.894799 -0.67179,1.050751 -1.53306,2.239307 -0.84405,1.171329 -1.80867,2.359885 -1.72254,2.18763 -2.9111,3.203931 -1.18856,1.016301 -1.99815,1.016301 -1.49861,0 -2.13596,-1.825896 -0.44786,-1.154105 -0.82682,-2.790521 -0.36173,-1.636417 -0.56844,-3.307285 -0.2067,-1.688093 -0.2067,-3.255608 0,-2.170405 0.37896,-3.651793 0.39618,-1.498613 1.06798,-1.9637 0.60289,-0.344508 1.27468,-0.344508 0.79237,0 1.48139,0.258381 0.70624,0.241156 1.10242,0.723469 0.36174,0.361734 0.53399,0.964624 0.18948,0.585665 0.24116,1.808671 0.0689,1.205781 0.0689,3.341735 v 0.878498 1.653642 1.946474 h 0.0689 q 0.32729,-0.740693 0.53399,-1.136878 0.55122,-1.085203 2.13596,-4.581967 0.32728,-0.740694 1.24023,-2.75607 z"
     id="text6"
     style="font-size:35.2777px;font-family:Forte;-inkscape-font-specification:Forte;fill-rule:evenodd;stroke:#000000;stroke-width:0;stroke-linecap:round;stroke-linejoin:round;stroke-miterlimit:0;paint-order:markers fill stroke"
     transform="rotate(57.147801)"
     aria-label="Markov" /><path
     style="fill:#000000;stroke-width:3.2072"
     d="m 108.19703,153.28949 0.99173,0.52395 0.59006,0.95476 0.59009,0.95475 -0.0289,12.11735 -0.0289,12.11736 -0.36514,0.87391 -0.36514,0.87391 -0.74721,0.58776 -0.74722,0.58775 -1.04054,0.28019 -1.04055,0.28018 -0.75693,-0.17839 -0.7569,-0.17838 -0.86325,-0.51845 -0.86325,-0.51844 -0.56235,-1.16167 -0.56235,-1.16167 v -5.75244 -5.75245 h -0.1966 -0.1966 l -11.683386,11.65303 -11.68339,11.65302 -1.15405,0.30533 -1.15405,0.30535 -1.01829,-0.27527 -1.01828,-0.27527 -0.61463,-0.43199 -0.6146,-0.432 -0.53945,-1.05741 -0.53945,-1.05741 v -0.9747 -0.97471 l 0.43596,-0.86903 0.43592,-0.86903 11.41039,-11.44329 11.41039,-11.44329 -0.18601,-0.30096 -0.18602,-0.30097 -5.75427,-0.001 -5.75426,-0.001 -0.86778,-0.52911 -0.86774,-0.5291 -0.4315,-0.65851 -0.43146,-0.6585 -0.25818,-0.90086 -0.2585,-0.90086 0.29057,-1.10114 0.2909,-1.10115 0.8475,-0.88517 0.8475,-0.88517 0.96245,-0.26739 0.96245,-0.26738 11.54057,0.0106 11.540576,0.0106 z"
     id="path19" /><path
     style="fill:#000000;stroke-width:3.2072"
     d="m 151.8841,153.32535 1.11302,0.50983 0.652,0.91416 0.65199,0.91416 v 1.54146 1.54146 l -0.56803,0.76666 -0.56806,0.76665 -0.89769,0.61098 -0.89773,0.61097 h -5.78198 -5.78201 l -0.18602,0.30099 -0.18601,0.30103 11.68935,11.71478 11.68936,11.71477 0.28736,1.09474 0.28737,1.09473 -0.2909,1.07761 -0.29089,1.07761 -0.81902,0.85762 -0.81903,0.85761 -1.14394,0.28804 -1.14395,0.28804 -1.06716,-0.28403 -1.06716,-0.28403 -11.7129,-11.69086 -11.7129,-11.69086 -0.30276,0.18721 -0.30276,0.1872 v 5.91777 5.91776 l -0.61318,0.92268 -0.61316,0.92267 -1.21976,0.62634 -1.21973,0.62635 -1.07364,-0.16322 -1.07365,-0.16321 -0.87579,-0.54127 -0.87579,-0.54127 -0.56235,-1.16166 -0.56235,-1.16167 v -11.95778 -11.95778 l 0.61097,-0.8977 0.61097,-0.89771 0.76637,-0.56805 0.76636,-0.56805 11.99619,-0.0663 11.99615,-0.0663 z"
     id="path18" /><path
     style="fill:#000000;stroke-width:3.2072"
     d="m 116.22898,93.932056 1.07333,-0.325637 1.11126,0.267962 1.1113,0.267994 0.93451,0.94352 0.93452,0.943517 0.2322,1.033197 0.2322,1.033217 -0.0859,15.944364 -0.086,15.94438 0.14433,0.14557 0.144,0.14554 2.54363,-2.51935 2.5436,-2.51936 1.22108,-0.41792 1.22108,-0.41795 1.00084,0.24131 1.0009,0.24138 0.87146,0.64792 0.87153,0.64792 0.41337,1.30738 0.41335,1.30738 -0.22418,1.08494 -0.22419,1.08493 -6.64686,6.64114 -6.64686,6.64116 -0.62425,0.52737 -0.62422,0.52737 -0.98609,0.23114 -0.98608,0.23115 -1.24491,-0.43946 -1.24488,-0.43948 -6.82454,-7.00509 -6.82457,-7.00509 -0.13567,-0.9441 -0.13566,-0.94412 0.21071,-1.1024 0.21071,-1.10241 1.14802,-0.98843 1.14805,-0.98846 1.00716,-0.16444 1.00719,-0.16443 0.96684,0.34979 0.96688,0.34979 2.49177,2.51577 2.49177,2.51574 0.25241,-0.0582 0.2524,-0.0582 0.0539,-15.74259 0.0539,-15.742629 0.305,-1.407477 0.30501,-1.407478 0.79054,-0.766287 0.79051,-0.766265 z"
     id="path12" /></svg>
